<svg xmlns="http://www.w3.org/2000/svg" aria-hidden="true" style="position:absolute;width:0;height:0;overflow:hidden">
  <defs>
    <symbol id="icon-Frame" viewBox="0 0 32 32">
      <path fill="#e5e5e5" d="M0 0h32v32H0V0z" style="fill:var(--color1, #e5e5e5)"/>
      <path fill="#fff" d="M-1644-4405.333H276v4624h-1920v-4624z" style="fill:var(--color2, #fff)"/>
      <path fill="#2e2f42" d="M-1644-197.333H276v416h-1920v-416z" style="fill:var(--color3, #2e2f42)"/>
      <path fill="#4d5ae5" d="M-150.667-10.667H58.666a5.333 5.333 0 0 1 5.333 5.333v42.667a5.333 5.333 0 0 1-5.333 5.333h-209.333A5.333 5.333 0 0 1-156 37.333V-5.334a5.333 5.333 0 0 1 5.333-5.333z" style="fill:var(--color4, #4d5ae5)"/>
      <path fill="#fff" d="m32 2.667-32 15 10.227 3.156L26 8.5 14.002 21.988l.01.003-.012-.003v7.345l5.735-5.576L27 25.999l5-23.333z" style="fill:var(--color2, #fff)"/>
    </symbol>
    <symbol id="icon-checkbox" viewBox="0 0 32 32">
      <path stroke-width="2" d="M4 1h24a3 3 0 0 1 3 3v24a3 3 0 0 1-3 3H4a3 3 0 0 1-3-3V4a3 3 0 0 1 3-3z"/>
    </symbol>
    <symbol id="icon-email" viewBox="0 0 24 32">
      <path d="M20 8H4c-1.1 0-1.99.9-1.99 2L2 22c0 1.1.9 2 2 2h16c1.1 0 2-.9 2-2V10c0-1.1-.9-2-2-2zm-.4 4.25-7.07 4.42c-.32.2-.74.2-1.06 0L4.4 12.25a.85.85 0 1 1 .9-1.44L12 15l6.7-4.19a.85.85 0 1 1 .9 1.44z"/>
    </symbol>
    <symbol id="icon-phone" viewBox="0 0 24 32">
      <path fill="#e5e5e5" d="M0 0h24v32H0V0z" style="fill:var(--color1, #e5e5e5)"/>
      <path fill="#fff" d="M-741.333-378.667h1920v896h-1920v-896z" style="fill:var(--color2, #fff)"/>
      <path d="M-741.333-282.667h1920v800h-1920v-800z" style="fill:var(--color5, #000)"/>
      <path fill="#2e2f42" d="M-741.333-282.667h1920v800h-1920v-800z" opacity=".7" style="fill:var(--color3, #2e2f42)"/>
      <path fill="#fff" d="M-70.289 35.469V44h-28.255v-8.531h28.255zM-94.971-9.083V44h-10.938V-9.083h10.938zm21 21.619v8.312h-24.573v-8.312h24.573zm3.646-21.619v8.568h-28.219v-8.568h28.219zM-50.348 44h-10.573V1.052c0-2.99.583-5.505 1.75-7.547a11.442 11.442 0 0 1 4.995-4.667c2.163-1.069 4.727-1.604 7.693-1.604.972 0 1.908.073 2.807.219.899.122 1.774.28 2.625.474l-.109 7.911c-.462-.122-.948-.207-1.458-.255s-1.106-.073-1.787-.073c-1.264 0-2.345.219-3.245.656-.875.413-1.543 1.033-2.005 1.859s-.693 1.835-.693 3.026v42.948zm7.875-39.448v7.438h-24.318V4.552h24.318zM-22.094 44h-10.573V1.052c0-2.99.583-5.505 1.75-7.547a11.442 11.442 0 0 1 4.995-4.667c2.163-1.069 4.727-1.604 7.693-1.604.972 0 1.908.073 2.807.219.899.122 1.774.28 2.625.474l-.109 7.911c-.462-.122-.948-.207-1.458-.255s-1.106-.073-1.786-.073c-1.264 0-2.346.219-3.245.656-.875.413-1.543 1.033-2.005 1.859s-.693 1.835-.693 3.026v42.948zm7.875-39.448v7.438h-24.318V4.552h24.318zm24.28 40.177c-3.063 0-5.809-.486-8.24-1.458-2.431-.997-4.497-2.37-6.198-4.12a18.323 18.323 0 0 1-3.865-6.089c-.899-2.333-1.349-4.813-1.349-7.437v-1.458c0-2.99.425-5.724 1.276-8.203s2.066-4.63 3.646-6.453c1.604-1.823 3.549-3.22 5.833-4.193 2.285-.997 4.861-1.495 7.729-1.495 2.795 0 5.274.462 7.437 1.385s3.974 2.236 5.432 3.937c1.483 1.701 2.601 3.743 3.354 6.125.753 2.358 1.13 4.983 1.13 7.875v4.375H-5.108v-7h21.037v-.802c0-1.458-.267-2.759-.802-3.901-.51-1.167-1.288-2.09-2.333-2.771s-2.382-1.021-4.01-1.021c-1.385 0-2.576.304-3.573.911S3.4 14.394 2.768 15.488c-.608 1.094-1.069 2.382-1.385 3.865-.292 1.458-.438 3.063-.438 4.813v1.458c0 1.58.219 3.038.656 4.375.462 1.337 1.106 2.491 1.932 3.464a8.817 8.817 0 0 0 3.063 2.26c1.215.535 2.589.802 4.12.802 1.896 0 3.658-.365 5.287-1.094 1.653-.753 3.075-1.884 4.266-3.391l5.104 5.542c-.826 1.191-1.957 2.333-3.391 3.427-1.41 1.094-3.111 1.993-5.104 2.698-1.993.681-4.266 1.021-6.818 1.021zm39.957-8.203c1.288 0 2.431-.243 3.427-.729.997-.511 1.774-1.215 2.333-2.115.583-.924.887-2.005.911-3.245h9.88c-.024 2.771-.766 5.238-2.224 7.401-1.458 2.139-3.415 3.828-5.87 5.068-2.455 1.215-5.201 1.823-8.24 1.823-3.062 0-5.736-.51-8.021-1.531-2.26-1.021-4.144-2.431-5.651-4.229-1.507-1.823-2.637-3.938-3.391-6.344-.753-2.431-1.13-5.031-1.13-7.802v-1.057c0-2.795.377-5.396 1.13-7.802.753-2.431 1.884-4.545 3.391-6.344 1.507-1.823 3.391-3.245 5.651-4.266s4.91-1.531 7.948-1.531c3.233 0 6.064.62 8.495 1.859 2.455 1.24 4.375 3.014 5.76 5.323 1.41 2.285 2.127 4.995 2.151 8.13h-9.88c-.024-1.313-.304-2.503-.839-3.573a6.05 6.05 0 0 0-2.26-2.552c-.972-.656-2.175-.984-3.609-.984-1.531 0-2.783.328-3.755.984-.972.632-1.726 1.507-2.26 2.625-.535 1.094-.911 2.345-1.13 3.755a31.392 31.392 0 0 0-.292 4.375v1.057c0 1.531.097 3.002.292 4.411s.559 2.661 1.094 3.755c.559 1.094 1.325 1.957 2.297 2.589s2.236.948 3.792.948zM93.475 4.552v7.438H70.506V4.552h22.969zM76.193-5.182h10.5v37.297c0 1.142.146 2.017.437 2.625.316.608.778 1.033 1.385 1.276.608.219 1.373.328 2.297.328.656 0 1.24-.024 1.75-.073.535-.073.984-.146 1.349-.219l.036 7.729c-.899.292-1.871.523-2.917.693s-2.2.255-3.463.255c-2.309 0-4.326-.377-6.052-1.13-1.701-.778-3.014-2.017-3.937-3.719s-1.385-3.938-1.385-6.708V-5.182zm35.837 9.734V44h-10.536V4.552h10.536zM100.838-5.729c0-1.531.535-2.795 1.604-3.792s2.503-1.495 4.302-1.495c1.774 0 3.196.498 4.266 1.495 1.094.997 1.641 2.26 1.641 3.792s-.547 2.795-1.641 3.792c-1.069.997-2.491 1.495-4.266 1.495-1.799 0-3.233-.498-4.302-1.495s-1.604-2.26-1.604-3.792zm34.779 42.073 8.751-31.792h10.973L142.034 44h-6.636l.219-7.656zm-6.015-31.792 8.786 31.828.183 7.62h-6.672L118.592 4.552h11.01zm49.582 40.177c-3.063 0-5.809-.486-8.24-1.458-2.431-.997-4.496-2.37-6.197-4.12a18.323 18.323 0 0 1-3.865-6.089c-.899-2.333-1.348-4.813-1.348-7.437v-1.458c0-2.99.425-5.724 1.276-8.203s2.065-4.63 3.645-6.453c1.604-1.823 3.548-3.22 5.833-4.193 2.284-.997 4.861-1.495 7.729-1.495 2.795 0 5.275.462 7.437 1.385s3.973 2.236 5.432 3.937c1.483 1.701 2.601 3.743 3.355 6.125.753 2.358 1.129 4.983 1.129 7.875v4.375h-31.353v-7h21.036v-.802c0-1.458-.267-2.759-.801-3.901a6.203 6.203 0 0 0-2.333-2.771c-1.045-.681-2.383-1.021-4.011-1.021-1.385 0-2.577.304-3.573.911s-1.811 1.458-2.443 2.552c-.608 1.094-1.069 2.382-1.385 3.865-.292 1.458-.437 3.063-.437 4.813v1.458c0 1.58.219 3.038.656 4.375.461 1.337 1.105 2.491 1.932 3.464a8.817 8.817 0 0 0 3.063 2.26c1.216.535 2.589.802 4.12.802 1.896 0 3.657-.365 5.287-1.094 1.652-.753 3.075-1.884 4.265-3.391l5.104 5.542c-.827 1.191-1.956 2.333-3.391 3.427-1.409 1.094-3.111 1.993-5.104 2.698-1.993.681-4.265 1.021-6.817 1.021zm72.039-14.62c0-.948-.147-1.799-.437-2.552-.268-.778-.779-1.483-1.532-2.115-.753-.656-1.811-1.3-3.172-1.932-1.36-.632-3.123-1.288-5.285-1.969a66.943 66.943 0 0 1-6.855-2.625c-2.139-.972-4.035-2.102-5.688-3.391-1.628-1.312-2.916-2.832-3.864-4.557-.924-1.726-1.385-3.731-1.385-6.016 0-2.212.485-4.217 1.459-6.016.972-1.823 2.333-3.378 4.083-4.667 1.751-1.313 3.816-2.321 6.197-3.026 2.407-.705 5.044-1.057 7.912-1.057 3.913 0 7.328.705 10.245 2.115 2.916 1.41 5.176 3.342 6.781 5.797 1.628 2.455 2.443 5.262 2.443 8.422H251.26c0-1.556-.328-2.917-.984-4.083-.632-1.191-1.604-2.127-2.917-2.807-1.288-.681-2.916-1.021-4.885-1.021-1.896 0-3.475.292-4.739.875-1.264.559-2.212 1.325-2.844 2.297-.632.948-.948 2.017-.948 3.208 0 .899.219 1.714.656 2.443.461.729 1.143 1.41 2.041 2.042.9.632 2.005 1.227 3.319 1.786 1.312.559 2.831 1.106 4.557 1.641 2.892.875 5.432 1.859 7.619 2.953 2.212 1.094 4.06 2.321 5.543 3.682s2.6 2.905 3.353 4.63 1.131 3.682 1.131 5.87c0 2.309-.449 4.375-1.349 6.198-.899 1.823-2.199 3.366-3.901 4.63-1.701 1.264-3.731 2.224-6.088 2.88s-4.995.984-7.912.984c-2.624 0-5.213-.34-7.765-1.021-2.552-.705-4.873-1.762-6.963-3.172-2.067-1.41-3.719-3.208-4.959-5.396s-1.86-4.776-1.86-7.766h10.975c0 1.653.255 3.05.765 4.193s1.228 2.066 2.151 2.771c.948.705 2.067 1.215 3.355 1.531 1.312.316 2.747.474 4.301.474 1.896 0 3.452-.267 4.667-.802 1.24-.535 2.152-1.276 2.735-2.224.608-.948.912-2.017.912-3.208zm17.534-5.432v-.766c0-2.892.413-5.554 1.24-7.984.827-2.455 2.029-4.582 3.609-6.38s3.524-3.196 5.833-4.193c2.309-1.021 4.959-1.531 7.948-1.531s5.651.51 7.984 1.531c2.333.997 4.291 2.394 5.869 4.193 1.605 1.799 2.82 3.925 3.647 6.38.827 2.431 1.239 5.092 1.239 7.984v.766c0 2.868-.412 5.529-1.239 7.984-.827 2.431-2.041 4.557-3.647 6.38-1.579 1.799-3.524 3.196-5.833 4.193-2.308.997-4.957 1.495-7.948 1.495-2.989 0-5.651-.498-7.984-1.495-2.309-.997-4.265-2.394-5.869-4.193-1.58-1.823-2.783-3.95-3.609-6.38-.827-2.455-1.24-5.116-1.24-7.984zm10.5-.766v.766c0 1.653.145 3.196.437 4.63s.753 2.698 1.385 3.792a7.239 7.239 0 0 0 2.552 2.516c1.045.608 2.321.911 3.828.911 1.459 0 2.711-.304 3.756-.911s1.884-1.446 2.516-2.516c.632-1.094 1.093-2.358 1.385-3.792.316-1.434.473-2.977.473-4.63v-.766c0-1.604-.157-3.111-.473-4.521-.292-1.434-.767-2.698-1.423-3.792-.632-1.118-1.471-1.993-2.515-2.625-1.045-.632-2.309-.948-3.792-.948s-2.747.316-3.792.948c-1.021.632-1.86 1.507-2.516 2.625-.632 1.094-1.093 2.358-1.385 3.792-.292 1.41-.437 2.917-.437 4.521zM325.157-12v56H314.62v-56h10.537zm33.504 46.557V4.552h10.5V44h-9.881l-.619-9.443zm1.167-8.093 3.099-.073c0 2.625-.304 5.068-.912 7.328-.607 2.236-1.519 4.181-2.735 5.833a12.773 12.773 0 0 1-4.593 3.828c-1.847.899-4.023 1.349-6.525 1.349-1.92 0-3.695-.267-5.324-.802a10.836 10.836 0 0 1-4.156-2.589c-1.143-1.191-2.041-2.71-2.697-4.557-.632-1.871-.948-4.12-.948-6.745V4.552h10.5v25.557c0 1.167.133 2.151.401 2.953.291.802.692 1.458 1.203 1.969s1.105.875 1.787 1.094c.704.219 1.483.328 2.333.328 2.163 0 3.864-.437 5.104-1.312 1.264-.875 2.151-2.066 2.661-3.573.535-1.531.803-3.233.803-5.104zm38.169-21.912v7.438h-22.968V4.552h22.968zm-17.281-9.734h10.5v37.297c0 1.142.147 2.017.439 2.625.316.608.777 1.033 1.385 1.276.607.219 1.373.328 2.296.328.657 0 1.24-.024 1.751-.073.535-.073.984-.146 1.349-.219l.036 7.729c-.9.292-1.872.523-2.917.693-1.044.17-2.199.255-3.463.255-2.309 0-4.327-.377-6.052-1.13-1.701-.778-3.015-2.017-3.937-3.719-.924-1.701-1.387-3.938-1.387-6.708V-5.182zm35.837 9.734V44h-10.536V4.552h10.536zM405.361-5.729c0-1.531.535-2.795 1.604-3.792s2.503-1.495 4.301-1.495c1.775 0 3.197.498 4.267 1.495 1.093.997 1.64 2.26 1.64 3.792s-.547 2.795-1.64 3.792c-1.069.997-2.492 1.495-4.267 1.495-1.799 0-3.232-.498-4.301-1.495s-1.604-2.26-1.604-3.792zm19.686 30.406v-.766c0-2.892.413-5.554 1.24-7.984.827-2.455 2.029-4.582 3.609-6.38s3.524-3.196 5.833-4.193c2.309-1.021 4.959-1.531 7.948-1.531s5.651.51 7.984 1.531c2.333.997 4.291 2.394 5.871 4.193 1.604 1.799 2.819 3.925 3.645 6.38.827 2.431 1.24 5.092 1.24 7.984v.766c0 2.868-.413 5.529-1.24 7.984-.827 2.431-2.041 4.557-3.645 6.38-1.58 1.799-3.525 3.196-5.833 4.193-2.309.997-4.959 1.495-7.948 1.495-2.991 0-5.652-.498-7.985-1.495-2.308-.997-4.265-2.394-5.869-4.193-1.58-1.823-2.783-3.95-3.609-6.38-.827-2.455-1.24-5.116-1.24-7.984zm10.5-.766v.766c0 1.653.147 3.196.437 4.63.292 1.434.755 2.698 1.387 3.792a7.23 7.23 0 0 0 2.552 2.516c1.044.608 2.32.911 3.828.911 1.457 0 2.709-.304 3.755-.911s1.884-1.446 2.516-2.516c.632-1.094 1.093-2.358 1.385-3.792.316-1.434.473-2.977.473-4.63v-.766c0-1.604-.157-3.111-.473-4.521-.292-1.434-.765-2.698-1.423-3.792-.631-1.118-1.469-1.993-2.515-2.625s-2.309-.948-3.792-.948-2.747.316-3.792.948c-1.02.632-1.859 1.507-2.515 2.625-.632 1.094-1.095 2.358-1.387 3.792a22.346 22.346 0 0 0-.437 4.521zm45.097-10.937V44h-10.5V4.552h9.844l.656 8.422zm-1.531 9.917h-2.844c0-2.917.377-5.542 1.131-7.875.753-2.358 1.811-4.363 3.172-6.016 1.361-1.677 2.977-2.953 4.848-3.828 1.896-.899 4.011-1.349 6.344-1.349 1.848 0 3.537.267 5.068.802a9.684 9.684 0 0 1 3.937 2.552c1.119 1.167 1.969 2.71 2.552 4.63.608 1.92.912 4.266.912 7.036v25.156H493.66V18.806c0-1.75-.243-3.111-.729-4.083-.485-.972-1.203-1.653-2.151-2.042-.924-.413-2.065-.62-3.427-.62-1.411 0-2.637.28-3.683.839a7.314 7.314 0 0 0-2.552 2.333c-.656.972-1.155 2.115-1.495 3.427s-.511 2.722-.511 4.229zm55.926 10.208c0-.753-.219-1.434-.656-2.042s-1.252-1.167-2.443-1.677c-1.167-.535-2.856-1.021-5.068-1.458a39.321 39.321 0 0 1-5.577-1.641c-1.701-.681-3.184-1.495-4.448-2.443-1.24-.948-2.212-2.066-2.917-3.354-.704-1.313-1.057-2.807-1.057-4.484a10.6 10.6 0 0 1 1.057-4.667c.729-1.458 1.763-2.747 3.099-3.865 1.361-1.142 3.015-2.029 4.959-2.661 1.969-.656 4.181-.984 6.636-.984 3.427 0 6.368.547 8.823 1.641 2.479 1.094 4.375 2.601 5.688 4.521 1.336 1.896 2.004 4.059 2.004 6.49h-10.5c0-1.021-.219-1.932-.656-2.734-.413-.826-1.069-1.47-1.968-1.932-.876-.486-2.017-.729-3.428-.729-1.167 0-2.175.207-3.025.62-.851.389-1.507.924-1.969 1.604a3.86 3.86 0 0 0-.656 2.188c0 .608.121 1.155.365 1.641.267.462.692.887 1.276 1.276.583.389 1.336.753 2.26 1.094.948.316 2.115.608 3.5.875 2.844.583 5.384 1.349 7.62 2.297 2.236.924 4.011 2.187 5.323 3.792 1.312 1.58 1.968 3.658 1.968 6.234 0 1.75-.388 3.354-1.167 4.813-.777 1.458-1.895 2.734-3.353 3.828-1.459 1.069-3.208 1.908-5.251 2.516-2.017.583-4.289.875-6.817.875-3.671 0-6.781-.656-9.333-1.969-2.528-1.313-4.448-2.977-5.76-4.995-1.288-2.042-1.932-4.132-1.932-6.271h9.952c.049 1.434.413 2.589 1.095 3.464a5.97 5.97 0 0 0 2.661 1.896c1.093.389 2.272.583 3.536.583 1.361 0 2.492-.182 3.391-.547.9-.389 1.58-.899 2.041-1.531.487-.656.729-1.41.729-2.26zM-73.389 124h-10.573V81.052c0-2.99.583-5.505 1.75-7.547a11.447 11.447 0 0 1 4.995-4.667c2.163-1.069 4.727-1.604 7.693-1.604.972 0 1.908.073 2.807.219.899.122 1.774.28 2.625.474l-.109 7.911c-.462-.121-.948-.207-1.458-.255s-1.106-.073-1.786-.073c-1.264 0-2.345.219-3.245.656-.875.413-1.543 1.033-2.005 1.859s-.693 1.835-.693 3.026v42.948zm7.875-39.448v7.437h-24.318v-7.437h24.318zm5.321 20.125v-.766c0-2.892.413-5.554 1.24-7.984.826-2.455 2.029-4.582 3.609-6.38s3.524-3.196 5.833-4.193c2.309-1.021 4.958-1.531 7.948-1.531s5.651.51 7.984 1.531c2.333.997 4.29 2.394 5.87 4.193 1.604 1.799 2.819 3.925 3.646 6.38.826 2.431 1.24 5.092 1.24 7.984v.766c0 2.868-.413 5.529-1.24 7.984-.826 2.431-2.042 4.557-3.646 6.38-1.58 1.799-3.524 3.196-5.833 4.193s-4.958 1.495-7.948 1.495-5.651-.498-7.984-1.495c-2.309-.997-4.266-2.394-5.87-4.193-1.58-1.823-2.783-3.95-3.609-6.38-.826-2.455-1.24-5.116-1.24-7.984zm10.5-.766v.766c0 1.653.146 3.196.437 4.63s.753 2.698 1.385 3.792c.656 1.069 1.507 1.908 2.552 2.516s2.321.911 3.828.911c1.458 0 2.71-.304 3.755-.911s1.884-1.446 2.516-2.516c.632-1.094 1.094-2.358 1.385-3.792.316-1.434.474-2.977.474-4.63v-.766c0-1.604-.158-3.111-.474-4.521-.292-1.434-.766-2.698-1.422-3.792-.632-1.118-1.47-1.993-2.516-2.625s-2.309-.948-3.792-.948c-1.483 0-2.747.316-3.792.948-1.021.632-1.859 1.507-2.516 2.625-.632 1.094-1.094 2.358-1.385 3.792-.292 1.41-.437 2.917-.437 4.521zm45.316-10.755V124h-10.5V84.552h9.88l.62 8.604zm11.886-8.859-.182 9.734c-.51-.073-1.13-.134-1.859-.182a18.876 18.876 0 0 0-1.932-.109c-1.483 0-2.771.194-3.865.583-1.069.365-1.969.911-2.698 1.641-.705.729-1.24 1.616-1.604 2.661-.34 1.045-.535 2.236-.583 3.573l-2.115-.656c0-2.552.255-4.897.766-7.036.51-2.163 1.252-4.047 2.224-5.651.997-1.604 2.212-2.844 3.646-3.719s3.075-1.313 4.922-1.313c.583 0 1.179.049 1.786.146.608.073 1.106.182 1.495.328zm34.486-13.38 11.083 24.208 11.083-24.208h11.922l-17.464 33.76V124H47.536v-19.323l-17.5-33.76h11.958zm35.692 33.76v-.766c0-2.892.413-5.554 1.24-7.984.826-2.455 2.029-4.582 3.609-6.38s3.524-3.196 5.833-4.193c2.309-1.021 4.958-1.531 7.948-1.531s5.651.51 7.984 1.531c2.333.997 4.29 2.394 5.87 4.193 1.604 1.799 2.819 3.925 3.646 6.38.826 2.431 1.24 5.092 1.24 7.984v.766c0 2.868-.413 5.529-1.24 7.984-.826 2.431-2.042 4.557-3.646 6.38-1.58 1.799-3.524 3.196-5.833 4.193s-4.958 1.495-7.948 1.495-5.651-.498-7.984-1.495c-2.309-.997-4.266-2.394-5.87-4.193-1.58-1.823-2.783-3.95-3.609-6.38-.826-2.455-1.24-5.116-1.24-7.984zm10.5-.766v.766c0 1.653.146 3.196.437 4.63s.753 2.698 1.385 3.792c.656 1.069 1.507 1.908 2.552 2.516s2.321.911 3.828.911c1.458 0 2.71-.304 3.755-.911s1.884-1.446 2.516-2.516c.632-1.094 1.094-2.358 1.385-3.792.316-1.434.474-2.977.474-4.63v-.766c0-1.604-.158-3.111-.474-4.521-.292-1.434-.766-2.698-1.422-3.792-.632-1.118-1.471-1.993-2.516-2.625s-2.309-.948-3.792-.948c-1.483 0-2.747.316-3.792.948-1.021.632-1.859 1.507-2.516 2.625-.632 1.094-1.094 2.358-1.385 3.792-.292 1.41-.437 2.917-.437 4.521zm58.149 10.646V84.552h10.5V124h-9.88l-.62-9.443zm1.167-8.093 3.099-.073c0 2.625-.303 5.068-.911 7.328-.608 2.236-1.52 4.181-2.735 5.833a12.79 12.79 0 0 1-4.593 3.828c-1.848.899-4.023 1.349-6.527 1.349-1.92 0-3.694-.267-5.323-.802a10.829 10.829 0 0 1-4.156-2.589c-1.142-1.191-2.042-2.71-2.698-4.557-.632-1.871-.948-4.12-.948-6.745V84.552h10.5v25.557c0 1.167.134 2.151.401 2.953.292.802.693 1.458 1.204 1.969.509.51 1.105.875 1.785 1.094.705.219 1.483.328 2.333.328 2.164 0 3.865-.437 5.105-1.312 1.263-.875 2.151-2.066 2.661-3.573.535-1.531.801-3.233.801-5.104zm29.348-13.308V124h-10.5V84.552h9.88l.62 8.604zm11.885-8.859-.183 9.734a25.092 25.092 0 0 0-1.859-.182 18.879 18.879 0 0 0-1.933-.109c-1.483 0-2.771.194-3.864.583-1.069.365-1.969.911-2.697 1.641-.705.729-1.24 1.616-1.605 2.661-.34 1.045-.535 2.236-.583 3.573l-2.115-.656c0-2.552.255-4.897.765-7.036.511-2.163 1.252-4.047 2.224-5.651.997-1.604 2.212-2.844 3.647-3.719 1.433-.875 3.075-1.313 4.921-1.313.583 0 1.179.049 1.787.146.608.073 1.105.182 1.495.328zm47.976 16.406h-13.636l-.072-7.51h11.448c2.017 0 3.669-.255 4.957-.766 1.289-.535 2.249-1.3 2.881-2.297.656-1.021.984-2.261.984-3.719 0-1.653-.316-2.99-.948-4.01-.608-1.021-1.568-1.762-2.88-2.224-1.288-.462-2.953-.693-4.995-.693h-7.584V124H215.93V70.917h18.521c3.087 0 5.845.292 8.276.875 2.455.583 4.533 1.47 6.235 2.661s3.001 2.698 3.9 4.521c.9 1.799 1.349 3.937 1.349 6.417 0 2.187-.499 4.205-1.495 6.052-.972 1.847-2.516 3.354-4.631 4.521-2.089 1.167-4.824 1.811-8.203 1.932l-3.172 2.807zM236.239 124h-16.152l4.267-8.531h11.885c1.92 0 3.487-.304 4.703-.911 1.215-.632 2.115-1.483 2.697-2.552.584-1.069.876-2.297.876-3.682 0-1.556-.268-2.905-.803-4.047-.511-1.142-1.337-2.017-2.479-2.625-1.143-.632-2.649-.948-4.521-.948h-10.536l.072-7.51h13.125l2.516 2.953c3.232-.049 5.833.523 7.801 1.713 1.993 1.167 3.44 2.686 4.339 4.557.924 1.871 1.385 3.877 1.385 6.016 0 3.403-.741 6.271-2.224 8.604-1.483 2.309-3.657 4.047-6.525 5.214-2.844 1.167-6.32 1.75-10.427 1.75zm51.55-9.443V84.552h10.5V124h-9.881l-.619-9.443zm1.167-8.093 3.099-.073c0 2.625-.304 5.068-.912 7.328-.608 2.236-1.519 4.181-2.735 5.833a12.773 12.773 0 0 1-4.593 3.828c-1.847.899-4.023 1.349-6.525 1.349-1.921 0-3.695-.267-5.324-.802a10.836 10.836 0 0 1-4.156-2.589c-1.143-1.191-2.041-2.71-2.697-4.557-.632-1.871-.948-4.12-.948-6.745V84.552h10.5v25.557c0 1.167.133 2.151.401 2.953.291.802.692 1.458 1.203 1.969s1.105.875 1.787 1.094c.704.219 1.483.328 2.333.328 2.163 0 3.864-.437 5.104-1.312 1.264-.875 2.151-2.066 2.661-3.573.535-1.531.803-3.233.803-5.104zm40.175 6.635c0-.753-.219-1.434-.656-2.042s-1.252-1.167-2.443-1.677c-1.167-.535-2.856-1.021-5.068-1.458a39.321 39.321 0 0 1-5.577-1.641c-1.701-.681-3.184-1.495-4.448-2.443-1.24-.948-2.212-2.066-2.917-3.354-.704-1.313-1.057-2.807-1.057-4.484a10.6 10.6 0 0 1 1.057-4.667c.729-1.458 1.763-2.747 3.099-3.865 1.361-1.142 3.015-2.03 4.959-2.661 1.969-.656 4.181-.984 6.636-.984 3.427 0 6.368.547 8.823 1.641 2.479 1.094 4.375 2.601 5.688 4.521 1.336 1.896 2.004 4.059 2.004 6.49h-10.5c0-1.021-.219-1.932-.656-2.734-.413-.826-1.069-1.471-1.968-1.932-.876-.486-2.017-.729-3.428-.729-1.167 0-2.175.207-3.025.62-.851.389-1.507.924-1.969 1.604a3.86 3.86 0 0 0-.656 2.187c0 .608.121 1.155.365 1.641.267.462.692.887 1.276 1.276.583.389 1.336.753 2.26 1.094.948.316 2.115.608 3.5.875 2.844.583 5.384 1.349 7.62 2.297 2.236.924 4.011 2.187 5.323 3.792 1.312 1.58 1.969 3.658 1.969 6.234 0 1.75-.389 3.354-1.167 4.813-.779 1.458-1.896 2.734-3.355 3.828-1.459 1.069-3.208 1.908-5.251 2.516-2.017.583-4.289.875-6.817.875-3.669 0-6.781-.656-9.333-1.969-2.528-1.313-4.448-2.977-5.76-4.995-1.288-2.042-1.932-4.132-1.932-6.271h9.952c.049 1.434.413 2.589 1.095 3.464a5.97 5.97 0 0 0 2.661 1.896c1.093.389 2.272.583 3.536.583 1.361 0 2.492-.182 3.391-.547.9-.389 1.58-.899 2.041-1.531.487-.656.729-1.41.729-2.26zm29.602-28.547V124h-10.536V84.552h10.536zm-11.192-10.281c0-1.531.535-2.795 1.604-3.792s2.503-1.495 4.301-1.495c1.775 0 3.197.498 4.267 1.495 1.093.997 1.64 2.26 1.64 3.792s-.547 2.795-1.64 3.792c-1.069.997-2.492 1.495-4.267 1.495-1.799 0-3.232-.498-4.301-1.495s-1.604-2.26-1.604-3.792zm31.644 18.703V124h-10.5V84.552h9.844l.656 8.422zm-1.53 9.917h-2.844c0-2.917.376-5.542 1.129-7.875.755-2.358 1.812-4.363 3.172-6.016 1.361-1.677 2.977-2.953 4.849-3.828 1.896-.899 4.011-1.349 6.344-1.349 1.847 0 3.536.267 5.068.802a9.698 9.698 0 0 1 3.937 2.552c1.117 1.167 1.968 2.71 2.552 4.63.608 1.92.911 4.266.911 7.036v25.156h-10.572V98.806c0-1.75-.244-3.111-.729-4.083-.487-.972-1.203-1.653-2.151-2.042-.924-.413-2.067-.62-3.428-.62-1.409 0-2.637.279-3.681.839a7.314 7.314 0 0 0-2.552 2.333c-.657.972-1.155 2.115-1.496 3.427-.34 1.313-.509 2.722-.509 4.229zm52.753 21.838c-3.063 0-5.809-.486-8.24-1.458-2.431-.997-4.496-2.37-6.197-4.12a18.323 18.323 0 0 1-3.865-6.089c-.899-2.333-1.348-4.813-1.348-7.437v-1.458c0-2.99.425-5.724 1.276-8.203s2.065-4.63 3.645-6.453c1.604-1.823 3.548-3.221 5.833-4.193 2.285-.997 4.861-1.495 7.729-1.495 2.795 0 5.275.462 7.437 1.385s3.975 2.236 5.432 3.938c1.483 1.701 2.601 3.743 3.355 6.125.753 2.358 1.131 4.983 1.131 7.875v4.375h-31.355v-7h21.036v-.802c0-1.458-.267-2.759-.801-3.901-.511-1.167-1.288-2.09-2.333-2.771s-2.383-1.021-4.011-1.021c-1.385 0-2.576.304-3.573.911-.996.608-1.811 1.458-2.443 2.552-.608 1.094-1.069 2.382-1.385 3.865-.292 1.458-.437 3.063-.437 4.813v1.458c0 1.58.219 3.038.656 4.375.463 1.337 1.107 2.491 1.932 3.464a8.817 8.817 0 0 0 3.063 2.26c1.216.535 2.589.802 4.12.802 1.896 0 3.659-.365 5.287-1.094 1.653-.753 3.075-1.884 4.265-3.391l5.104 5.542c-.827 1.191-1.956 2.333-3.391 3.427-1.409 1.094-3.111 1.993-5.104 2.698-1.993.681-4.265 1.021-6.817 1.021zm44.988-11.63c0-.753-.219-1.434-.656-2.042s-1.252-1.167-2.443-1.677c-1.167-.535-2.856-1.021-5.068-1.458a39.428 39.428 0 0 1-5.579-1.641c-1.701-.681-3.184-1.495-4.448-2.443-1.239-.948-2.211-2.066-2.916-3.354-.705-1.313-1.057-2.807-1.057-4.484 0-1.653.352-3.208 1.057-4.667.729-1.458 1.763-2.747 3.099-3.865 1.361-1.142 3.015-2.03 4.959-2.661 1.968-.656 4.18-.984 6.635-.984 3.428 0 6.369.547 8.824 1.641 2.479 1.094 4.375 2.601 5.687 4.521 1.337 1.896 2.005 4.059 2.005 6.49h-10.5c0-1.021-.219-1.932-.656-2.734-.413-.826-1.069-1.471-1.969-1.932-.875-.486-2.017-.729-3.427-.729-1.167 0-2.175.207-3.025.62-.851.389-1.508.924-1.969 1.604a3.86 3.86 0 0 0-.656 2.187c0 .608.121 1.155.364 1.641.268.462.693.887 1.276 1.276.584.389 1.337.753 2.261 1.094.948.316 2.115.608 3.5.875 2.843.583 5.383 1.349 7.619 2.297 2.237.924 4.011 2.187 5.324 3.792 1.312 1.58 1.968 3.658 1.968 6.234 0 1.75-.388 3.354-1.167 4.813-.777 1.458-1.896 2.734-3.353 3.828-1.459 1.069-3.209 1.908-5.251 2.516-2.017.583-4.289.875-6.817.875-3.671 0-6.781-.656-9.333-1.969-2.528-1.313-4.448-2.977-5.76-4.995-1.289-2.042-1.933-4.132-1.933-6.271h9.953c.049 1.434.413 2.589 1.093 3.464a5.971 5.971 0 0 0 2.663 1.896c1.093.389 2.272.583 3.536.583 1.361 0 2.491-.182 3.391-.547.899-.389 1.58-.899 2.041-1.531.487-.656.729-1.41.729-2.26zm39.848 0c0-.753-.219-1.434-.657-2.042-.437-.608-1.251-1.167-2.443-1.677-1.167-.535-2.855-1.021-5.067-1.458a39.389 39.389 0 0 1-5.579-1.641c-1.701-.681-3.184-1.495-4.448-2.443-1.24-.948-2.212-2.066-2.916-3.354-.705-1.313-1.057-2.807-1.057-4.484 0-1.653.352-3.208 1.057-4.667.729-1.458 1.761-2.747 3.099-3.865 1.361-1.142 3.013-2.03 4.959-2.661 1.968-.656 4.18-.984 6.635-.984 3.427 0 6.368.547 8.823 1.641 2.48 1.094 4.376 2.601 5.688 4.521 1.337 1.896 2.005 4.059 2.005 6.49h-10.5c0-1.021-.219-1.932-.656-2.734-.413-.826-1.069-1.471-1.969-1.932-.875-.486-2.017-.729-3.427-.729-1.167 0-2.176.207-3.027.62-.851.389-1.507.924-1.968 1.604a3.86 3.86 0 0 0-.656 2.187c0 .608.121 1.155.364 1.641.268.462.693.887 1.276 1.276.584.389 1.337.753 2.26 1.094.948.316 2.115.608 3.5.875 2.844.583 5.384 1.349 7.62 2.297 2.236.924 4.011 2.187 5.323 3.792 1.313 1.58 1.969 3.658 1.969 6.234 0 1.75-.389 3.354-1.167 4.813s-1.896 2.734-3.355 3.828c-1.457 1.069-3.208 1.908-5.249 2.516-2.017.583-4.291.875-6.817.875-3.671 0-6.781-.656-9.333-1.969-2.528-1.313-4.448-2.977-5.761-4.995-1.288-2.042-1.932-4.132-1.932-6.271h9.953c.048 1.434.413 2.589 1.093 3.464a5.976 5.976 0 0 0 2.661 1.896c1.095.389 2.273.583 3.537.583 1.36 0 2.491-.182 3.391-.547.899-.389 1.579-.899 2.041-1.531.485-.656.729-1.41.729-2.26z" style="fill:var(--color2, #fff)"/>
      <path fill="#2e2f42" d="M-741.333-378.667h1920v901.333h-1920v-901.333z" opacity=".4" style="fill:var(--color3, #2e2f42)"/>
      <path fill="#fcfcfc" d="M-48-272h533.333a5.333 5.333 0 0 1 5.333 5.333v768a5.333 5.333 0 0 1-5.333 5.333H-48a5.333 5.333 0 0 1-5.333-5.333v-768A5.333 5.333 0 0 1-48-272z" style="fill:var(--color6, #fcfcfc)"/>
      <path fill="none" stroke="#2e2f42" stroke-width="1.333" d="M-16-10h469.333A4.667 4.667 0 0 1 458-5.333v42.667a4.667 4.667 0 0 1-4.667 4.667H-16a4.667 4.667 0 0 1-4.667-4.667V-5.333A4.667 4.667 0 0 1-16-10z" style="stroke:var(--color3, #2e2f42)"/>
      <path fill="#2e2f42" d="m19.635 18.487-2.451-.28a1.92 1.92 0 0 0-1.582.55l-1.775 1.775a14.514 14.514 0 0 1-6.359-6.359l1.785-1.785c.415-.415.618-.994.55-1.582l-.28-2.432a1.931 1.931 0 0 0-1.92-1.708H5.934c-1.09 0-1.997.907-1.93 1.997.511 8.24 7.102 14.821 15.332 15.332 1.09.068 1.997-.839 1.997-1.93v-1.669a1.913 1.913 0 0 0-1.698-1.911z" style="fill:var(--color3, #2e2f42)"/>
    </symbol>
    <symbol id="icon-person" viewBox="0 0 32 32">
      <path fill="#4d5ae5" d="M16 16c2.947 0 5.333-2.387 5.333-5.333S18.946 5.334 16 5.334c-2.947 0-5.333 2.387-5.333 5.333S13.054 16 16 16zm0 2.667c-3.56 0-10.667 1.787-10.667 5.333v1.333c0 .733.6 1.333 1.333 1.333h18.667c.733 0 1.333-.6 1.333-1.333V24c0-3.547-7.107-5.333-10.667-5.333z" style="fill:var(--color4, #4d5ae5)"/>
    </symbol>
    <symbol id="icon-close" viewBox="0 0 32 32">
      <path d="M32 3.223 28.777 0 16 12.777 3.223 0 0 3.223 12.777 16 0 28.777 3.223 32 16 19.223 28.777 32 32 28.777 19.223 16 32 3.223z"/>
    </symbol>
  </defs>
</svg>
